<?xml version="1.0" standalone="no"?>
<!DOCTYPE svg PUBLIC "-//W3C//DTD SVG 20010904//EN"
 "http://www.w3.org/TR/2001/REC-SVG-20010904/DTD/svg10.dtd">
<svg version="1.0" xmlns="http://www.w3.org/2000/svg"
 width="1024.000000pt" height="1024.000000pt" viewBox="0 0 1024.000000 1024.000000"
 preserveAspectRatio="xMidYMid meet">

<g transform="translate(0.000000,1024.000000) scale(0.100000,-0.100000)"
fill="#000000" stroke="none">
<path d="M4380 8024 c-14 -2 -59 -9 -100 -15 -155 -23 -345 -103 -516 -217
-101 -68 -237 -189 -228 -203 3 -5 0 -8 -8 -7 -7 2 -12 -3 -10 -10 1 -8 -2
-11 -7 -8 -5 3 -28 -16 -50 -43 -41 -48 -52 -69 -29 -55 7 5 8 3 4 -5 -5 -7
-11 -10 -14 -7 -7 7 -32 -13 -32 -26 0 -5 5 -6 12 -2 7 4 8 3 4 -5 -4 -6 -11
-9 -16 -6 -11 7 -33 -22 -25 -35 4 -6 1 -9 -7 -8 -7 2 -12 -5 -12 -14 1 -10
-2 -15 -7 -13 -22 14 -150 -250 -194 -402 -51 -176 -69 -312 -69 -523 0 -199
10 -299 43 -408 l19 -60 -32 -5 c-65 -9 -125 23 -156 84 -49 96 -62 179 -67
437 l-5 242 -78 0 c-110 0 -173 -14 -267 -60 -188 -93 -302 -282 -303 -502 0
-39 4 -68 10 -68 6 0 10 -8 10 -18 0 -37 61 -141 110 -186 28 -26 81 -62 118
-79 l67 -32 1590 -3 c1342 -2 1587 0 1575 11 -8 8 -224 176 -480 375 -256 198
-475 370 -488 382 -60 57 -57 8 -62 785 l-5 710 -135 1 c-74 1 -146 0 -160 -2z
m290 -532 c0 -289 -2 -523 -4 -521 -3 2 -6 76 -7 164 -2 172 -7 237 -18 231
-8 -5 -6 47 2 61 8 13 -3 53 -15 53 -5 0 -6 -4 -3 -10 3 -5 1 -10 -4 -10 -17
0 -13 27 4 34 8 3 15 11 15 18 0 10 -2 10 -9 -1 -7 -10 -12 -8 -24 9 -10 15
-16 17 -19 8 -4 -10 -8 -11 -20 -1 -8 7 -18 10 -22 6 -4 -4 -4 1 0 10 4 12 2
17 -7 15 -8 -2 -13 2 -12 9 2 8 -4 10 -14 6 -11 -4 -13 -8 -5 -11 7 -2 12 -8
12 -14 0 -7 -5 -7 -13 1 -8 6 -16 8 -20 5 -3 -3 -10 4 -17 15 -7 14 -7 21 0
21 5 0 10 -7 10 -15 0 -14 3 -13 25 1 24 15 26 15 43 -6 28 -35 46 -17 25 23
-9 18 -16 37 -14 42 1 6 -1 7 -5 3 -4 -4 -13 -3 -20 3 -8 6 -14 7 -18 0 -4 -6
-13 -8 -21 -4 -8 3 -15 0 -15 -6 0 -14 23 -14 36 -1 7 7 17 3 30 -12 13 -16
14 -19 2 -10 -13 11 -20 11 -39 0 -17 -10 -23 -10 -26 0 -3 6 -9 9 -15 6 -5
-3 -2 9 8 27 14 29 15 32 1 21 -13 -11 -17 -10 -25 4 -5 9 -7 25 -5 35 3 11 0
19 -7 19 -8 0 -11 9 -8 25 3 13 1 22 -4 19 -5 -3 -15 -1 -22 5 -7 6 -22 9 -32
5 -16 -5 -16 -4 -4 5 13 9 12 12 -5 25 -25 18 -36 11 -31 -20 3 -13 1 -22 -4
-19 -4 3 -11 -7 -14 -21 -7 -25 -8 -26 -21 -8 -7 11 -11 21 -9 24 3 2 10 -2
15 -10 8 -12 10 -10 6 8 -3 12 -1 20 3 17 5 -3 11 -1 14 4 7 11 -31 26 -59 22
-15 -1 -17 0 -7 7 8 5 13 12 13 16 -1 3 1 6 4 6 3 0 10 0 16 0 5 0 7 -4 4 -10
-3 -5 -1 -10 4 -10 18 0 26 5 23 13 -1 5 2 6 8 2 5 -3 10 -1 10 5 0 6 10 8 24
4 16 -4 25 -1 29 10 4 11 1 13 -10 9 -9 -4 -14 -2 -10 3 9 16 -8 35 -26 28 -9
-3 -14 -10 -11 -15 3 -5 0 -9 -5 -9 -6 0 -11 9 -11 21 0 13 4 18 12 13 8 -5 9
-2 5 9 -3 10 -2 17 3 17 6 0 10 -5 10 -10 0 -7 6 -7 20 0 11 6 17 16 14 25 -6
16 4 19 30 9 22 -8 20 -25 -1 -18 -14 5 -15 4 -4 -4 7 -5 22 -7 32 -5 16 5 16
7 4 20 -22 21 -19 23 23 19 20 -3 30 -2 21 0 -11 3 -15 12 -12 25 9 31 -35 25
-47 -7 -8 -20 -13 -24 -24 -15 -7 6 -17 7 -21 3 -5 -4 -5 -1 -1 6 5 7 14 11
22 8 8 -3 14 1 14 8 0 8 -13 14 -32 14 -44 2 -171 -20 -160 -27 14 -10 22 -40
12 -46 -5 -3 -14 5 -21 17 -6 13 -13 24 -14 26 -1 2 -24 -2 -50 -9 -25 -6 -42
-15 -36 -18 6 -4 -4 -7 -22 -8 -32 -1 -175 -64 -267 -118 -29 -17 -36 -20 -20
-6 79 64 300 156 445 184 110 22 131 24 283 25 l132 0 0 -526z m-302 484 c-7
-8 -17 -12 -22 -9 -4 3 -2 9 5 14 22 13 31 11 17 -5z m95 -7 c-8 -8 -13 -7
-18 2 -5 8 -4 10 3 5 7 -4 12 -2 12 5 0 7 3 9 7 6 4 -4 2 -12 -4 -18z m-121
-23 c7 4 8 2 4 -5 -9 -13 -26 -5 -25 12 0 9 2 8 6 -1 2 -6 10 -9 15 -6z m-32
-58 c0 -4 -6 -8 -14 -8 -8 0 -17 4 -20 8 -2 4 4 8 15 8 10 0 19 -4 19 -8z
m-70 -62 c0 -2 -8 -10 -17 -17 -16 -13 -17 -12 -4 4 13 16 21 21 21 13z m-477
-54 c-11 -9 -49 -39 -84 -67 -34 -27 -72 -56 -83 -64 -19 -13 -19 -12 -6 1 26
27 180 148 188 148 4 -1 -3 -8 -15 -18z m655 -43 c3 -11 1 -11 -7 1 -7 10 -11
11 -11 3 0 -20 -17 -15 -23 6 -4 16 -1 18 16 12 12 -4 23 -14 25 -22z m25 -78
c3 -13 1 -18 -9 -14 -7 2 -10 11 -7 19 7 19 10 18 16 -5z m128 -78 c13 -16 12
-17 -3 -4 -10 7 -18 15 -18 17 0 8 8 3 21 -13z m96 -650 c-3 -10 -5 -4 -5 12
0 17 2 24 5 18 2 -7 2 -21 0 -30z"/>
<path d="M4395 7901 c-6 -11 13 -26 22 -17 4 3 1 6 -6 6 -7 0 -9 5 -6 10 3 6
4 10 1 10 -3 0 -7 -4 -11 -9z"/>
<path d="M4454 7768 c-4 -6 -3 -8 4 -4 6 3 15 -2 21 -11 12 -20 14 -13 5 11
-7 19 -20 21 -30 4z"/>
<path d="M4476 7709 c2 -4 -2 -11 -10 -16 -8 -5 -12 -14 -8 -20 5 -8 13 -2 23
16 13 21 13 28 3 28 -7 0 -11 -4 -8 -8z"/>
<path d="M5088 8013 c7 -3 16 -2 19 1 4 3 -2 6 -13 5 -11 0 -14 -3 -6 -6z"/>
<path d="M4825 7375 c0 -346 1 -487 2 -312 2 175 2 459 0 630 -1 172 -2 29 -2
-318z"/>
<path d="M6203 6795 c0 -22 2 -30 4 -17 2 12 2 30 0 40 -3 9 -5 -1 -4 -23z"/>
<path d="M6390 6613 c0 -317 -65 -588 -183 -772 -26 -39 -47 -74 -47 -76 0 -3
282 -5 626 -5 l625 0 -3 263 c-4 250 -5 265 -30 339 -14 44 -45 104 -71 140
-61 85 -153 158 -179 142 -6 -4 -8 -3 -4 4 9 14 -89 50 -172 62 -37 5 -178 10
-314 10 l-248 0 0 -107z"/>
<path d="M6214 6615 c0 -49 1 -71 3 -48 2 23 2 64 0 90 -2 26 -3 8 -3 -42z"/>
<path d="M4860 6637 c0 -2 19 -19 43 -37 23 -19 36 -26 28 -17 -15 19 -71 61
-71 54z"/>
<path d="M4950 6566 c0 -2 8 -10 18 -17 15 -13 16 -12 3 4 -13 16 -21 21 -21
13z"/>
<path d="M5005 6520 c10 -11 20 -20 23 -20 3 0 -3 9 -13 20 -10 11 -20 20 -23
20 -3 0 3 -9 13 -20z"/>
<path d="M5055 6480 c10 -11 20 -20 23 -20 3 0 -3 9 -13 20 -10 11 -20 20 -23
20 -3 0 3 -9 13 -20z"/>
<path d="M5105 6440 c10 -11 20 -20 23 -20 3 0 -3 9 -13 20 -10 11 -20 20 -23
20 -3 0 3 -9 13 -20z"/>
<path d="M6202 6435 c0 -16 2 -22 5 -12 2 9 2 23 0 30 -3 6 -5 -1 -5 -18z"/>
<path d="M5140 6417 c0 -3 18 -20 40 -37 22 -17 40 -29 40 -27 0 3 -18 20 -40
37 -22 17 -40 29 -40 27z"/>
<path d="M6192 6350 c0 -14 2 -19 5 -12 2 6 2 18 0 25 -3 6 -5 1 -5 -13z"/>
<path d="M5245 6330 c10 -11 20 -20 23 -20 3 0 -3 9 -13 20 -10 11 -20 20 -23
20 -3 0 3 -9 13 -20z"/>
<path d="M6182 6300 c0 -14 2 -19 5 -12 2 6 2 18 0 25 -3 6 -5 1 -5 -13z"/>
<path d="M5280 6306 c0 -2 8 -10 18 -17 15 -13 16 -12 3 4 -13 16 -21 21 -21
13z"/>
<path d="M5335 6260 c10 -11 20 -20 23 -20 3 0 -3 9 -13 20 -10 11 -20 20 -23
20 -3 0 3 -9 13 -20z"/>
<path d="M6171 6254 c0 -11 3 -14 6 -6 3 7 2 16 -1 19 -3 4 -6 -2 -5 -13z"/>
<path d="M5370 6236 c0 -2 8 -10 18 -17 15 -13 16 -12 3 4 -13 16 -21 21 -21
13z"/>
<path d="M5425 6190 c10 -11 20 -20 23 -20 3 0 -3 9 -13 20 -10 11 -20 20 -23
20 -3 0 3 -9 13 -20z"/>
<path d="M5470 6156 c0 -2 8 -10 18 -17 15 -13 16 -12 3 4 -13 16 -21 21 -21
13z"/>
<path d="M5510 6127 c0 -2 19 -19 43 -37 23 -19 36 -26 28 -17 -15 19 -71 61
-71 54z"/>
<path d="M5600 6056 c0 -2 8 -10 18 -17 15 -13 16 -12 3 4 -13 16 -21 21 -21
13z"/>
<path d="M5655 6010 c10 -11 20 -20 23 -20 3 0 -3 9 -13 20 -10 11 -20 20 -23
20 -3 0 3 -9 13 -20z"/>
<path d="M5710 5965 c13 -14 26 -25 28 -25 3 0 -5 11 -18 25 -13 14 -26 25
-28 25 -3 0 5 -11 18 -25z"/>
<path d="M5750 5936 c0 -2 8 -10 18 -17 15 -13 16 -12 3 4 -13 16 -21 21 -21
13z"/>
<path d="M5999 5893 c-13 -16 -12 -17 4 -4 9 7 17 15 17 17 0 8 -8 3 -21 -13z"/>
<path d="M5898 5863 c12 -2 30 -2 40 0 9 3 -1 5 -23 4 -22 0 -30 -2 -17 -4z"/>
<path d="M7590 5676 c0 -2 8 -10 18 -17 15 -13 16 -12 3 4 -13 16 -21 21 -21
13z"/>
<path d="M2242 5510 c0 -14 2 -19 5 -12 2 6 2 18 0 25 -3 6 -5 1 -5 -13z"/>
<path d="M2241 5434 c0 -11 3 -14 6 -6 3 7 2 16 -1 19 -3 4 -6 -2 -5 -13z"/>
<path d="M2244 5020 c0 -146 2 -205 3 -132 2 72 2 192 0 265 -1 72 -3 13 -3
-133z"/>
<path d="M6465 5019 c-150 -23 -280 -87 -396 -196 -107 -101 -173 -210 -215
-358 -24 -81 -24 -256 0 -345 71 -264 280 -457 558 -514 66 -14 175 -16 760
-16 768 0 734 -3 794 76 l29 37 3 586 c1 322 0 596 -3 608 -3 13 -19 39 -37
58 -63 73 -18 69 -763 71 -368 1 -697 -2 -730 -7z m236 -457 c60 -29 116 -85
143 -142 30 -64 29 -189 -1 -246 -33 -63 -66 -97 -121 -127 -131 -71 -282 -46
-376 64 -45 53 -66 116 -66 198 1 126 80 233 200 272 48 16 172 5 221 -19z"/>
<path d="M2245 3805 c0 -522 1 -738 2 -478 2 259 2 687 0 950 -1 263 -2 51 -2
-472z"/>
<path d="M7682 2840 c0 -14 2 -19 5 -12 2 6 2 18 0 25 -3 6 -5 1 -5 -13z"/>
<path d="M2252 2830 c0 -14 2 -19 5 -12 2 6 2 18 0 25 -3 6 -5 1 -5 -13z"/>
<path d="M2264 2775 c5 -34 46 -148 51 -143 2 2 -10 41 -27 88 -16 47 -27 71
-24 55z"/>
<path d="M2323 2607 c29 -78 181 -248 259 -290 32 -17 32 -17 8 0 -85 61 -152
129 -209 214 -36 52 -62 86 -58 76z"/>
<path d="M7529 2463 c-13 -16 -12 -17 4 -4 16 13 21 21 13 21 -2 0 -10 -8 -17
-17z"/>
<path d="M7489 2413 c-13 -16 -12 -17 4 -4 16 13 21 21 13 21 -2 0 -10 -8 -17
-17z"/>
<path d="M7429 2363 l-24 -28 28 24 c15 14 27 26 27 28 0 8 -8 1 -31 -24z"/>
<path d="M2620 2295 c0 -7 81 -47 86 -43 2 3 -17 14 -41 26 -25 12 -45 20 -45
17z"/>
<path d="M7280 2270 c-19 -11 -31 -19 -27 -20 11 0 67 29 67 35 0 7 -1 7 -40
-15z"/>
<path d="M2745 2235 c17 -8 37 -14 45 -14 8 0 -1 7 -20 14 -46 18 -64 17 -25
0z"/>
<path d="M2830 2210 c25 -8 87 -13 79 -6 -2 2 -26 6 -54 9 -34 4 -42 3 -25 -3z"/>
<path d="M7128 2213 c7 -3 16 -2 19 1 4 3 -2 6 -13 5 -11 0 -14 -3 -6 -6z"/>
<path d="M7078 2203 c7 -3 16 -2 19 1 4 3 -2 6 -13 5 -11 0 -14 -3 -6 -6z"/>
<path d="M3948 2193 c569 -2 1496 -2 2060 0 565 1 100 2 -1033 2 -1133 0
-1595 -1 -1027 -2z"/>
</g>
</svg>
